<?xml version="1.0" encoding="utf-8"?>
<svg viewBox="0 0 16000 16000" xmlns="http://www.w3.org/2000/svg">
  <path d="M 0 18 L 16000 18 L 16000 4862.681 C 14898.796 5640.887 14417.212 5454.653 13600 5662.681 C 12706.71 5890.075 11799.163 6175.362 10877.763 6148.986 C 9949.71 6122.419 9071.777 5717.275 8168.38 5503.119 C 7545.771 5355.525 6938.221 5108.502 6300 5062.681 C 5717.728 5020.876 5280.774 5595.198 4387.087 5493.787 C 3964.442 5445.828 3075.718 4837.916 2364.022 4803.532 C 1555.216 4764.456 274.999 5620.853 0 5362.681 L 0 18 Z" style="stroke: rgb(0, 0, 0); fill: rgb(107, 78, 117);"/>
  <path d="M 0 10166.004 C 0 10166.004 2040.385 11259.607 2915.91 11393.402 C 4619.635 11653.761 5635.896 10291.692 7357.241 10205.449 C 8402.383 10153.085 11068.972 11374.042 12810.016 11120.347 C 13845.766 10969.423 16000 9666.004 16000 9666.004 L 16000 16000 L 0 16000 L 0 10166.004 Z" style="stroke: rgb(0, 0, 0); fill: rgb(107, 78, 117);"/>
</svg>