<?xml version="1.0" encoding="utf-8"?>
<svg viewBox="0 0 1000 1000" xmlns="http://www.w3.org/2000/svg" xmlns:bx="https://boxy-svg.com">
  <defs>
    <bx:guide x="500" y="500" angle="0"/>
  </defs>
  <path d="M 727.468 260.366 C 723.332 189.319 725.428 122.306 686.844 92.192 C 670.701 79.593 577.004 61.413 559.721 59.245 C 483.131 49.637 400.592 53.021 334.399 79.408 C 247.197 114.171 246.029 228.881 249.43 269.187 C 261.866 416.557 291.196 413.094 290.057 603.942 C 289.695 664.582 244.208 795.667 303.996 888.124 C 354.942 966.907 397.376 937.415 500 953.126 C 569.776 963.809 642.157 976.257 690.148 924.253 C 736.423 874.108 740.137 531.997 724.65 473.85 C 717.895 448.485 727.468 260.366 727.468 260.366 Z" style="fill: rgb(159, 153, 107);"/>
  <path d="M 292.476 575.285 C 316.385 595.482 367.591 617.546 410.187 641.513 C 473.903 677.364 545.647 707.299 619.08 716.634 C 648.391 720.361 676.649 728.678 706.381 728.678 C 722.812 729.211 728.942 720.748 732.513 717.9 C 734.738 716.126 733.358 705.449 734.718 702.407 C 738.052 687.979 748.465 653.999 734.624 650.2 C 675.805 634.053 610.439 638.287 548.018 627.539 C 518.146 622.396 492.913 595.857 464.758 585.528 C 434.119 574.288 396.493 574.272 365.938 560.749 C 351.432 554.328 327.165 547.796 315.991 536.623 C 310.713 531.345 293.104 520.258 286.46 516.6 C 282.404 514.367 280.58 532.771 281.022 541.136 C 281.655 553.126 283.305 567.537 292.476 575.285 Z" style="fill: rgb(181, 128, 3);"/>
  <path d="M 288.122 579.599 C 292.418 579.299 344.05 635.579 377.187 641.102 C 389.902 643.221 403.377 640.858 416.094 642.978 C 498.276 656.675 567.442 640.079 638.479 600.286 C 664.061 585.956 686.557 564.235 707.435 543.242 C 710.67 539.99 729.808 523.965 731.978 525.33 C 740.049 530.406 735.324 559.54 738.313 567.763 C 744.36 584.404 729.826 596.381 723.143 608.206 C 705.616 639.214 667.06 664.337 636.576 681.446 C 610.2 696.248 580.55 716.049 549.965 721.269 C 475.108 734.044 395.948 711.528 332.296 675.643 C 318.67 667.961 290.768 657.747 284.225 644.661 C 281.255 638.721 282.85 626.424 283.354 613.806 C 284.027 596.952 284.652 579.841 288.122 579.599 Z" style="fill: rgb(217, 161, 78);"/>
  <path d="M 532.4526114351502 629.5680984796745 C 532.45263671875 656.8872365832432 530.98828125 683.7903430140391 530.98828125 710.8536376953125 C 530.98828125 718.4772467350721 528.4772902090712 732.7354844642423 531.7232055664062 739.296142578125 C 533.1946656833128 742.2702641101059 542.6951942105105 736.0149767616575 544.2003784179688 735.2595825195312 C 555.4987399485326 729.5893680677991 565.8586488084784 723.3374667635859 576.5862426757812 716.5081176757812 C 595.6999573067475 704.3400368186741 627.5706996364421 705.5011345558858 643.9356689453125 691.9979858398438 C 644.999374362833 691.1202956852369 643.9356689453125 681.4281507381396 643.9356689453125 680.2337646484375 C 643.9356689453125 668.3306586952111 642.5196834641051 655.8407779166665 639.7236328125 644.6558837890625 C 636.2922341818752 630.9294406106777 643.9456400426964 604.7861548076694 634.3433227539062 594.2754516601562 C 633.0227732478638 592.8299772572419 620.9645090392733 594.4953257427235 620.1439819335938 595.0103759765625 C 608.9374790666571 602.0447711625128 595.84211178268 611.6692603231907 583.408935546875 614.9464721679688 C 576.3756541146965 616.8003470572198 533.4124145507812 621.5428745890558 533.4124145507812 629.9410400390625" style="fill: rgb(245, 230, 95);"/>
</svg>