<?xml version="1.0" encoding="utf-8"?>
<svg viewBox="0 0 1000 1000" xmlns="http://www.w3.org/2000/svg" xmlns:bx="https://boxy-svg.com">
  <defs>
    <bx:guide x="500" y="500" angle="0"/>
  </defs>
  <path d="M 680.036 378.523 C 675.9 307.476 678.715 262.324 645.182 209.817 C 634.16 192.559 583.238 189.201 565.955 187.033 C 489.365 177.425 434.114 186.895 365.209 205.057 C 351.888 208.569 341.05 252.415 339.821 262.027 C 334.711 301.985 327.718 341.387 321.533 381.361 C 317.626 406.619 324.217 433.382 319.856 458.559 C 317.915 469.764 316.199 529.025 316.901 528.579 C 328.196 521.388 340.552 521.715 352.696 517.236 C 381.255 506.701 444.292 511.352 473.824 515.919 C 543.584 526.707 604.58 519.566 667.884 551.192 C 671.463 552.98 724.249 589.604 731.74 584.637 C 738.745 579.992 736.357 561.869 738.362 553.787 C 755.533 484.597 698.453 515.428 682.966 457.281 C 676.211 431.916 680.036 378.523 680.036 378.523 Z" style="fill: rgb(240, 179, 65);"/>
  <path d="M 619.846 252.397 C 586.944 252.706 572.009 322.739 607.609 332.963 C 629.498 339.25 645.954 304.788 642.969 284.011 C 642.107 278.007 632.017 252.283 619.846 252.397 Z" style="fill: rgb(255, 248, 40);"/>
  <path d="M 548.543 273.972 C 542.862 262.611 524.134 254.091 510.309 259.445 C 496.713 264.71 487.55 279.549 484.423 294.033 C 479.199 318.227 499.165 350.331 526.341 343.511 C 556.539 335.934 560.681 298.248 548.543 273.972 Z" style="fill: rgb(255, 248, 39);"/>
  <path d="M 491.388 402.669 C 524.658 402.669 567.534 378.759 600.428 366.834 C 605.363 365.045 635.853 356.268 641.796 364.156 C 646.635 370.579 640.71 367.09 646.513 373.363 C 647.76 374.711 636.395 374.655 635.422 374.655 C 626.366 374.655 621.392 376.733 613.845 380.77 C 586.921 395.174 564.578 408.933 532.908 414.784 C 506.927 419.584 486.515 427.786 472.13 399.383 C 470.992 397.137 499.731 402.669 491.388 402.669 Z" style="fill: rgb(172, 126, 35);"/>
  <path d="M 627.749 425.266 C 586.882 425.266 543.789 429.373 507.038 438.697 C 501.353 440.14 472.304 442.279 471.404 447.315 C 470.259 453.728 508.906 457.52 515.094 457.52 C 545.396 457.52 572.181 455.344 598.22 442.682 C 608.035 437.91 627.476 444.243 635.604 436.5 C 641.157 431.209 627.749 425.266 627.749 425.266 Z" style="fill: rgb(172, 126, 35);"/>
</svg>