<?xml version="1.0" encoding="utf-8"?>
<svg viewBox="0 0 1000 1000" xmlns="http://www.w3.org/2000/svg" xmlns:bx="https://boxy-svg.com">
  <defs>
    <bx:guide x="500" y="500" angle="0"/>
  </defs>
  <path d="M 673.067 380.69 C 668.931 309.643 671.746 264.491 638.213 211.984 C 627.191 194.726 576.269 191.368 558.986 189.2 C 482.396 179.592 427.145 189.062 358.24 207.224 C 344.919 210.736 334.081 254.582 332.852 264.194 C 327.742 304.152 320.749 343.554 314.564 383.528 C 310.657 408.786 317.248 435.549 312.887 460.726 C 310.946 471.931 309.23 531.192 309.932 530.746 C 321.227 523.555 333.583 523.882 345.727 519.403 C 374.286 508.868 437.323 513.519 466.855 518.086 C 536.615 528.874 597.611 521.733 660.915 553.359 C 664.494 555.147 717.28 591.771 724.771 586.804 C 731.776 582.159 729.388 564.036 731.393 555.954 C 748.564 486.764 691.484 517.595 675.997 459.448 C 669.242 434.083 673.067 380.69 673.067 380.69 Z" style="fill: rgb(240, 179, 65);"/>
  <path d="M 619.846 252.397 C 586.944 252.706 572.009 322.739 607.609 332.963 C 629.498 339.25 645.954 304.788 642.969 284.011 C 642.107 278.007 632.017 252.283 619.846 252.397 Z" style="fill: rgb(255, 248, 40);"/>
  <path d="M 548.543 273.972 C 542.862 262.611 524.134 254.091 510.309 259.445 C 496.713 264.71 487.55 279.549 484.423 294.033 C 479.199 318.227 499.165 350.331 526.341 343.511 C 556.539 335.934 560.681 298.248 548.543 273.972 Z" style="fill: rgb(255, 248, 39);"/>
  <path d="M 491.388 402.669 C 524.658 402.669 567.534 378.759 600.428 366.834 C 605.363 365.045 635.853 356.268 641.796 364.156 C 646.635 370.579 640.71 367.09 646.513 373.363 C 647.76 374.711 636.395 374.655 635.422 374.655 C 626.366 374.655 621.392 376.733 613.845 380.77 C 586.921 395.174 564.578 408.933 532.908 414.784 C 506.927 419.584 486.515 427.786 472.13 399.383 C 470.992 397.137 499.731 402.669 491.388 402.669 Z" style="fill: rgb(172, 126, 35);"/>
  <path d="M 627.749 425.266 C 586.882 425.266 543.789 429.373 507.038 438.697 C 501.353 440.14 472.304 442.279 471.404 447.315 C 470.259 453.728 508.906 457.52 515.094 457.52 C 545.396 457.52 572.181 455.344 598.22 442.682 C 608.035 437.91 627.476 444.243 635.604 436.5 C 641.157 431.209 627.749 425.266 627.749 425.266 Z" style="fill: rgb(172, 126, 35);"/>
</svg>