<?xml version="1.0" encoding="utf-8"?>
<svg viewBox="0 0 1000 1000" xmlns="http://www.w3.org/2000/svg" xmlns:bx="https://boxy-svg.com">
  <defs>
    <bx:guide x="500" y="500" angle="0"/>
  </defs>
  <path d="M 601.262 532.729 C 599.539 499.121 600.413 467.421 584.337 453.176 C 577.611 447.217 538.571 438.617 531.369 437.591 C 499.458 433.046 465.067 434.647 437.488 447.129 C 401.154 463.573 400.668 517.836 402.084 536.902 C 407.266 606.614 419.487 604.977 419.012 695.255 C 418.862 723.94 399.909 785.949 424.819 829.685 C 446.047 866.954 463.728 853.002 506.487 860.434 C 535.56 865.488 565.717 871.376 585.714 846.777 C 604.994 823.056 606.542 661.222 600.088 633.716 C 597.274 621.718 601.262 532.729 601.262 532.729 Z" style="fill: rgb(203, 189, 83);"/>
</svg>