<?xml version="1.0" encoding="utf-8"?>
<svg viewBox="0 0 2000 2000" xmlns="http://www.w3.org/2000/svg">
  <g id="head" style="">
    <path d="M 458.571 1097.291 C 320.215 1097.291 229.641 1182.855 229.641 1320.567 C 229.641 1379.728 220.676 1434.617 282.252 1465.405 C 331.252 1489.905 403.147 1532.288 460.499 1517.898 C 547.547 1496.056 612.527 1353.069 591.73 1269.879 C 570.001 1182.96 507.105 1145.821 458.571 1097.291 Z" style="stroke: rgb(0, 0, 0); fill: rgb(216, 216, 216);"/>
    <path d="M 1414.779 1150.97 C 1349.317 1150.97 1274.503 1134.88 1215.284 1164.432 C 1146.165 1198.924 1123.939 1260.551 1114.917 1332.38 C 1108.583 1382.807 1099.589 1427.289 1140.465 1468.165 C 1214.597 1542.297 1360.743 1571.613 1463.421 1554.4 C 1507.835 1546.954 1511.616 1503.238 1517.396 1468.487 C 1530.311 1390.84 1517.595 1294.964 1476.147 1229.5 C 1465.022 1211.929 1434.729 1150.97 1414.779 1150.97 Z" style="stroke: rgb(0, 0, 0); fill: rgb(216, 216, 216);"/>
    <path d="M 245.68 822.489 C 373.085 708.476 1605.74 642.148 1627.3 656.936 C 1654.62 675.675 1658.517 1203.993 1511.3 1320.698 C 1354.883 1339.737 993.728 1334.447 812.244 1336.694 C 698.116 1338.107 511.832 1360.966 430.954 1266.839 C 302.024 1116.788 277.326 813.239 245.68 822.489 Z" style="stroke: rgb(0, 0, 0); fill: rgb(216, 216, 216);"/>
  </g>
</svg>