<?xml version="1.0" encoding="utf-8"?>
<svg viewBox="0 0 2000 2000" xmlns="http://www.w3.org/2000/svg" xmlns:bx="https://boxy-svg.com">
  <g id="head" transform="matrix(1, 0, 0, 1, -7.248878, -78.620789)" bx:origin="0.417 0.772">
    <path d="M 1197.204 489.484 C 1193.068 418.437 1195.883 373.285 1162.35 320.778 C 1151.328 303.52 1100.406 300.162 1083.123 297.994 C 1006.533 288.386 951.282 297.856 882.377 316.018 C 869.056 319.53 858.218 363.376 856.989 372.988 C 851.879 412.946 844.886 452.348 838.701 492.322 C 834.794 517.58 841.385 544.343 837.024 569.52 C 835.083 580.725 833.367 639.986 834.069 639.54 C 845.364 632.349 857.72 632.676 869.864 628.197 C 898.423 617.662 961.46 622.313 990.992 626.88 C 1060.752 637.668 1121.748 630.527 1185.052 662.153 C 1188.631 663.941 1241.417 700.565 1248.908 695.598 C 1255.913 690.953 1253.525 672.83 1255.53 664.748 C 1272.701 595.558 1215.621 626.389 1200.134 568.242 C 1193.379 542.877 1197.204 489.484 1197.204 489.484 Z" style="fill: rgb(240, 179, 65);"/>
    <path d="M 1137.014 363.358 C 1104.112 363.667 1089.177 433.7 1124.777 443.924 C 1146.666 450.211 1163.122 415.749 1160.137 394.972 C 1159.275 388.968 1149.185 363.244 1137.014 363.358 Z" style="fill: rgb(255, 248, 40);"/>
    <path d="M 1065.711 384.933 C 1060.03 373.572 1041.302 365.052 1027.477 370.406 C 1013.881 375.671 1004.718 390.51 1001.591 404.994 C 996.367 429.188 1016.333 461.292 1043.509 454.472 C 1073.707 446.895 1077.849 409.209 1065.711 384.933 Z" style="fill: rgb(255, 248, 39);"/>
    <path d="M 1008.556 513.63 C 1041.826 513.63 1084.702 489.72 1117.596 477.795 C 1122.531 476.006 1153.021 467.229 1158.964 475.117 C 1163.803 481.54 1157.878 478.051 1163.681 484.324 C 1164.928 485.672 1153.563 485.616 1152.59 485.616 C 1143.534 485.616 1138.56 487.694 1131.013 491.731 C 1104.089 506.135 1081.746 519.894 1050.076 525.745 C 1024.095 530.545 1003.683 538.747 989.298 510.344 C 988.16 508.098 1016.899 513.63 1008.556 513.63 Z" style="fill: rgb(172, 126, 35);"/>
    <path d="M 1144.917 536.227 C 1104.05 536.227 1060.957 540.334 1024.206 549.658 C 1018.521 551.101 989.472 553.24 988.572 558.276 C 987.427 564.689 1026.074 568.481 1032.262 568.481 C 1062.564 568.481 1089.349 566.305 1115.388 553.643 C 1125.203 548.871 1144.644 555.204 1152.772 547.461 C 1158.325 542.17 1144.917 536.227 1144.917 536.227 Z" style="fill: rgb(172, 126, 35);"/>
  </g>
</svg>